<svg width="32" height="32" viewBox="0 0 32 32" fill="none" xmlns="http://www.w3.org/2000/svg">
<path d="M2.33333 6.66666C2.20082 6.66479 2.06926 6.68927 1.94629 6.73869C1.82332 6.7881 1.7114 6.86146 1.61703 6.9545C1.52266 7.04755 1.44773 7.15842 1.39658 7.28068C1.34543 7.40294 1.31909 7.53414 1.31909 7.66666C1.31909 7.79919 1.34543 7.93039 1.39658 8.05265C1.44773 8.17491 1.52266 8.28578 1.61703 8.37882C1.7114 8.47187 1.82332 8.54523 1.94629 8.59464C2.06926 8.64406 2.20082 8.66854 2.33333 8.66666H12.3333C12.4658 8.66854 12.5974 8.64406 12.7204 8.59464C12.8433 8.54523 12.9553 8.47187 13.0496 8.37882C13.144 8.28578 13.2189 8.17491 13.2701 8.05265C13.3212 7.93039 13.3476 7.79919 13.3476 7.66666C13.3476 7.53414 13.3212 7.40294 13.2701 7.28068C13.2189 7.15842 13.144 7.04755 13.0496 6.9545C12.9553 6.86146 12.8433 6.7881 12.7204 6.73869C12.5974 6.68927 12.4658 6.66479 12.3333 6.66666H2.33333ZM16.3333 6.66666C16.2008 6.66479 16.0693 6.68927 15.9463 6.73869C15.8233 6.7881 15.7114 6.86146 15.617 6.9545C15.5227 7.04755 15.4477 7.15842 15.3966 7.28068C15.3454 7.40294 15.3191 7.53414 15.3191 7.66666C15.3191 7.79919 15.3454 7.93039 15.3966 8.05265C15.4477 8.17491 15.5227 8.28578 15.617 8.37882C15.7114 8.47187 15.8233 8.54523 15.9463 8.59464C16.0693 8.64406 16.2008 8.66854 16.3333 8.66666H18.3333C18.8977 8.66666 19.3333 9.10233 19.3333 9.66666V22H11.8568C11.4172 20.4677 9.99982 19.3333 8.33333 19.3333C6.66684 19.3333 5.24949 20.4677 4.8099 22H4.33333C3.769 22 3.33333 21.5643 3.33333 21V19.6667C3.33525 19.5328 3.31029 19.4 3.25991 19.2759C3.20953 19.1519 3.13477 19.0393 3.04006 18.9447C2.94535 18.8501 2.83261 18.7755 2.70853 18.7253C2.58445 18.675 2.45155 18.6503 2.31771 18.6523C2.05272 18.6565 1.80021 18.7656 1.61564 18.9558C1.43107 19.146 1.32953 19.4017 1.33333 19.6667V21C1.33333 22.645 2.68833 24 4.33333 24H4.8099C5.24949 25.5323 6.66684 26.6667 8.33333 26.6667C9.99982 26.6667 11.4172 25.5323 11.8568 24H20.1432C20.5828 25.5323 22.0002 26.6667 23.6667 26.6667C25.3332 26.6667 26.7505 25.5323 27.1901 24H27.6667C29.3117 24 30.6667 22.645 30.6667 21V16.7578C30.6667 16.3369 30.5778 15.9234 30.4089 15.5417C30.4084 15.5412 30.408 15.5408 30.4076 15.5404L28.4414 11.1159V11.1146C27.9613 10.0336 26.8832 9.33333 25.7005 9.33333H21.2995C21.1295 7.84441 19.8644 6.66666 18.3333 6.66666H16.3333ZM2.33333 10.6667C2.20082 10.6648 2.06926 10.6893 1.94629 10.7387C1.82332 10.7881 1.7114 10.8615 1.61703 10.9545C1.52266 11.0475 1.44773 11.1584 1.39658 11.2807C1.34543 11.4029 1.31909 11.5341 1.31909 11.6667C1.31909 11.7992 1.34543 11.9304 1.39658 12.0527C1.44773 12.1749 1.52266 12.2858 1.61703 12.3788C1.7114 12.4719 1.82332 12.5452 1.94629 12.5946C2.06926 12.6441 2.20082 12.6685 2.33333 12.6667H9.66667C9.79918 12.6685 9.93074 12.6441 10.0537 12.5946C10.1767 12.5452 10.2886 12.4719 10.383 12.3788C10.4773 12.2858 10.5523 12.1749 10.6034 12.0527C10.6546 11.9304 10.6809 11.7992 10.6809 11.6667C10.6809 11.5341 10.6546 11.4029 10.6034 11.2807C10.5523 11.1584 10.4773 11.0475 10.383 10.9545C10.2886 10.8615 10.1767 10.7881 10.0537 10.7387C9.93074 10.6893 9.79918 10.6648 9.66667 10.6667H2.33333ZM21.3333 11.3333H25.7005C26.0988 11.3333 26.4519 11.5634 26.6133 11.9271L27.8307 14.6667H21.3333V11.3333ZM2.33333 14.6667C2.20082 14.6648 2.06926 14.6893 1.94629 14.7387C1.82332 14.7881 1.7114 14.8615 1.61703 14.9545C1.52266 15.0475 1.44773 15.1584 1.39658 15.2807C1.34543 15.4029 1.31909 15.5341 1.31909 15.6667C1.31909 15.7992 1.34543 15.9304 1.39658 16.0527C1.44773 16.1749 1.52266 16.2858 1.61703 16.3788C1.7114 16.4719 1.82332 16.5452 1.94629 16.5946C2.06926 16.6441 2.20082 16.6685 2.33333 16.6667H7C7.13251 16.6685 7.26408 16.6441 7.38704 16.5946C7.51001 16.5452 7.62193 16.4719 7.7163 16.3788C7.81067 16.2858 7.88561 16.1749 7.93676 16.0527C7.9879 15.9304 8.01424 15.7992 8.01424 15.6667C8.01424 15.5341 7.9879 15.4029 7.93676 15.2807C7.88561 15.1584 7.81067 15.0475 7.7163 14.9545C7.62193 14.8615 7.51001 14.7881 7.38704 14.7387C7.26408 14.6893 7.13251 14.6648 7 14.6667H2.33333ZM21.3333 16.6667H28.6576C28.6604 16.697 28.6667 16.7275 28.6667 16.7578V21C28.6667 21.5643 28.231 22 27.6667 22H27.1901C26.7505 20.4677 25.3332 19.3333 23.6667 19.3333C22.7827 19.3333 21.9691 19.6528 21.3333 20.181V16.6667ZM8.33333 21.3333C9.2325 21.3333 9.94299 22.0219 9.99089 22.9075C9.98518 22.969 9.98518 23.0309 9.99089 23.0924C9.94299 23.9781 9.2325 24.6667 8.33333 24.6667C7.43417 24.6667 6.72368 23.9781 6.67578 23.0924C6.68149 23.0309 6.68149 22.969 6.67578 22.9075C6.72368 22.0219 7.43417 21.3333 8.33333 21.3333ZM23.6667 21.3333C24.5976 21.3333 25.3333 22.0691 25.3333 23C25.3333 23.9309 24.5976 24.6667 23.6667 24.6667C22.7357 24.6667 22 23.9309 22 23C22 22.0691 22.7357 21.3333 23.6667 21.3333Z" fill="#182748"/>
</svg>
