<svg width="24" height="24" viewBox="0 0 24 24" fill="none" xmlns="http://www.w3.org/2000/svg">
<path d="M9.51005 6.285C9.40505 6.30375 9.3113 6.35625 9.24005 6.435L4.00505 11.655L3.67505 12L4.00505 12.345L9.24005 17.565C9.3563 17.7075 9.54192 17.7731 9.72192 17.7319C9.90005 17.6906 10.0407 17.55 10.0819 17.3719C10.1232 17.1919 10.0575 17.0063 9.91505 16.89L5.50505 12.48H19.68C19.8525 12.4819 20.0138 12.3919 20.1019 12.2419C20.1882 12.0919 20.1882 11.9081 20.1019 11.7581C20.0138 11.6081 19.8525 11.5181 19.68 11.52H5.50505L9.91505 7.11C10.0707 6.96563 10.1119 6.73688 10.0182 6.5475C9.9263 6.35625 9.71817 6.25125 9.51005 6.285Z" fill="#182748"/>
</svg>
