<svg width="32" height="32" viewBox="0 0 32 32" fill="none" xmlns="http://www.w3.org/2000/svg">
<path d="M16.3334 2.66669C13.1485 2.66669 10.5346 3.56256 8.72919 5.27216C6.92381 6.98175 6.00002 9.45589 6.00002 12.3334V14.8386C5.23987 15.4455 4.66669 16.2871 4.66669 17.3334C4.66669 18.9078 5.803 20.18 7.27997 20.5209C7.87765 22.8909 8.87125 25.0022 10.2709 26.5521C11.8056 28.2517 13.8046 29.3334 16 29.3334C16.1325 29.3352 16.2641 29.3107 16.3871 29.2613C16.51 29.2119 16.622 29.1386 16.7163 29.0455C16.8107 28.9525 16.8856 28.8416 16.9368 28.7193C16.9879 28.5971 17.0143 28.4659 17.0143 28.3334C17.0143 28.2008 16.9879 28.0696 16.9368 27.9474C16.8856 27.8251 16.8107 27.7142 16.7163 27.6212C16.622 27.5281 16.51 27.4548 16.3871 27.4054C16.2641 27.356 16.1325 27.3315 16 27.3334C14.4548 27.3334 13.0014 26.591 11.7552 25.211C10.509 23.8309 9.51523 21.8191 9.01955 19.4571C8.9723 19.2324 8.84919 19.0308 8.67089 18.8862C8.4926 18.7416 8.26997 18.6627 8.04039 18.6628C7.83591 18.6628 7.82354 18.6667 8.00002 18.6667C7.25179 18.6667 6.66669 18.0816 6.66669 17.3334C6.66669 16.7976 6.97435 16.3611 7.42841 16.1459C7.59943 16.0648 7.74393 15.9368 7.84512 15.7768C7.9463 15.6169 8.00002 15.4315 8.00002 15.2422V12.3334C8.00002 9.87215 8.7429 8.01305 10.1042 6.72398C11.4655 5.43491 13.5182 4.66669 16.3334 4.66669C20.5449 4.66669 23.3149 6.59751 24.6641 9.41799C24.6771 9.44582 24.6749 9.45499 24.625 9.47007C23.8875 9.69313 22.1038 10 20 10C17.4584 10 15.7678 9.52641 14.7279 9.08075C13.688 8.63508 13.3737 8.29299 13.3737 8.29299C13.255 8.17428 13.1083 8.08736 12.9472 8.04024C12.7861 7.99313 12.6157 7.98734 12.4517 8.0234C12.2877 8.05946 12.1355 8.13621 12.009 8.24659C11.8825 8.35696 11.7858 8.4974 11.7279 8.65497C11.7279 8.65497 11.505 9.34795 10.3893 10.2071C10.2852 10.2872 10.1979 10.3872 10.1324 10.5011C10.0669 10.615 10.0244 10.7408 10.0075 10.8711C9.99057 11.0015 9.99948 11.1339 10.0337 11.2608C10.068 11.3877 10.1269 11.5066 10.2071 11.6107C10.2872 11.7148 10.3872 11.8021 10.5011 11.8677C10.6151 11.9332 10.7408 11.9756 10.8711 11.9925C11.0015 12.0095 11.1339 12.0006 11.2608 11.9663C11.3877 11.9321 11.5066 11.8732 11.6107 11.793C12.2651 11.2891 12.666 10.7749 12.9818 10.3334C13.3144 10.5637 13.3134 10.6513 13.9388 10.9193C15.2323 11.4736 17.2084 12 20 12C21.4306 12 22.6614 11.8786 23.6654 11.7136C23.822 12.1834 24 12.8704 24 13.6667V20.3334C24 22.0024 22.669 23.3334 21 23.3334H19.7735C19.5843 22.9346 19.286 22.5977 18.9131 22.3617C18.5402 22.1257 18.108 22.0003 17.6667 22C17.3603 22 17.0569 22.0604 16.7738 22.1776C16.4907 22.2949 16.2334 22.4668 16.0168 22.6834C15.8001 22.9001 15.6282 23.1573 15.511 23.4404C15.3937 23.7235 15.3334 24.0269 15.3334 24.3334C15.3334 24.6398 15.3937 24.9432 15.511 25.2263C15.6282 25.5094 15.8001 25.7666 16.0168 25.9833C16.2334 26.1999 16.4907 26.3718 16.7738 26.4891C17.0569 26.6063 17.3603 26.6667 17.6667 26.6667C18.1078 26.6662 18.5397 26.5406 18.9123 26.3047C19.285 26.0687 19.5831 25.7319 19.7722 25.3334H21C23.6372 25.3334 25.8093 23.2618 25.9831 20.6667H26C27.4727 20.6667 28.6667 19.4727 28.6667 18V16.6667C28.6667 15.194 27.4727 14 26 14V13.6667C26 12.6939 25.805 11.8305 25.6107 11.2097C26.5117 10.6995 26.9382 9.53804 26.4688 8.55471C24.7993 5.06452 21.1818 2.66669 16.3334 2.66669ZM12.6667 16C12.3131 16 11.9739 16.1405 11.7239 16.3905C11.4738 16.6406 11.3334 16.9797 11.3334 17.3334C11.3334 17.687 11.4738 18.0261 11.7239 18.2762C11.9739 18.5262 12.3131 18.6667 12.6667 18.6667C13.0203 18.6667 13.3594 18.5262 13.6095 18.2762C13.8595 18.0261 14 17.687 14 17.3334C14 16.9797 13.8595 16.6406 13.6095 16.3905C13.3594 16.1405 13.0203 16 12.6667 16ZM19.3334 16C18.9797 16 18.6406 16.1405 18.3905 16.3905C18.1405 16.6406 18 16.9797 18 17.3334C18 17.687 18.1405 18.0261 18.3905 18.2762C18.6406 18.5262 18.9797 18.6667 19.3334 18.6667C19.687 18.6667 20.0261 18.5262 20.2762 18.2762C20.5262 18.0261 20.6667 17.687 20.6667 17.3334C20.6667 16.9797 20.5262 16.6406 20.2762 16.3905C20.0261 16.1405 19.687 16 19.3334 16Z" fill="#182748"/>
</svg>
