<svg width="32" height="32" viewBox="0 0 32 32" fill="none" xmlns="http://www.w3.org/2000/svg">
<path d="M16 2.01175C15.2661 1.99829 14.5124 2.2484 13.9284 2.78388L13.2656 3.39195L12.3867 3.20836C10.8944 2.89834 9.38864 3.78101 8.93099 5.2357L8.66146 6.09248L7.8073 6.37373C6.35971 6.85127 5.49807 8.36644 5.82813 9.85419L6.02214 10.7318L5.42448 11.4011C4.40943 12.5378 4.42068 14.2808 5.44922 15.405C5.44966 15.405 5.45009 15.405 5.45053 15.405L6.0573 16.0677L5.8737 16.9479C5.66918 17.9324 5.99049 18.9157 6.64584 19.6068L2.95964 23.293C2.83777 23.4149 2.74949 23.5663 2.70335 23.7324C2.65722 23.8985 2.6548 24.0737 2.69633 24.241C2.73786 24.4083 2.82193 24.562 2.94039 24.6873C3.05885 24.8125 3.20766 24.905 3.3724 24.9558L7.20053 26.1328L8.37761 29.961C8.42838 30.1257 8.52088 30.2745 8.64612 30.393C8.77136 30.5114 8.92509 30.5955 9.09239 30.637C9.2597 30.6786 9.4349 30.6762 9.601 30.63C9.7671 30.5839 9.91845 30.4956 10.0404 30.3737L15.7747 24.6394C15.8408 24.6456 15.9067 24.6596 15.9727 24.6615C15.9909 24.662 16.0091 24.662 16.0273 24.6615C16.0934 24.6596 16.1592 24.6456 16.2253 24.6394L21.9596 30.3737C22.0816 30.4956 22.2329 30.5839 22.399 30.63C22.5651 30.6762 22.7403 30.6786 22.9076 30.637C23.0749 30.5955 23.2287 30.5114 23.3539 30.393C23.4791 30.2745 23.5716 30.1257 23.6224 29.961L24.7995 26.1328L28.6276 24.9558C28.7923 24.905 28.9412 24.8125 29.0596 24.6873C29.1781 24.562 29.2621 24.4083 29.3037 24.241C29.3452 24.0737 29.3428 23.8985 29.2967 23.7324C29.2505 23.5663 29.1622 23.4149 29.0404 23.293L25.3529 19.6055C26.0082 18.9145 26.3308 17.9323 26.1263 16.9479L25.9427 16.0677L26.5495 15.405C26.5499 15.405 26.5504 15.405 26.5508 15.405C27.5793 14.2808 27.5906 12.5378 26.5755 11.4011L25.9766 10.7305L26.1719 9.85419C26.5019 8.36644 25.6403 6.84997 24.1927 6.37242L23.3385 6.09117L23.069 5.2344C22.6114 3.7797 21.1056 2.89834 19.6133 3.20836L18.7344 3.39065L18.0716 2.78388C18.0712 2.78345 18.0708 2.78301 18.0703 2.78258C17.4864 2.24815 16.7339 1.99828 16 2.01175ZM15.9714 4.00524C15.9905 4.00578 16.0096 4.00578 16.0287 4.00524C16.2843 3.99807 16.525 4.0793 16.7201 4.25784L17.7604 5.21227C17.8774 5.31917 18.018 5.39676 18.1708 5.43864C18.3236 5.48052 18.4842 5.48549 18.6393 5.45315L20.0208 5.16669C20.5246 5.06205 21.0058 5.34403 21.1602 5.83466C21.1606 5.83466 21.161 5.83466 21.1615 5.83466L21.5846 7.18102C21.6322 7.33237 21.7151 7.47023 21.8265 7.5832C21.9379 7.69618 22.0746 7.78103 22.2253 7.83076L23.5664 8.27216C24.0548 8.43329 24.33 8.91902 24.2188 9.4206L23.9141 10.7982C23.8797 10.9531 23.8827 11.1139 23.9228 11.2674C23.9628 11.4209 24.0389 11.5627 24.1445 11.681L25.0833 12.7331C25.4256 13.1164 25.4217 13.6749 25.0742 14.0547L24.1224 15.0951C24.0153 15.2119 23.9374 15.3525 23.8953 15.5053C23.8532 15.6581 23.848 15.8188 23.8802 15.974L24.168 17.3555C24.2648 17.8245 24.0224 18.2706 23.5925 18.4545C23.4909 18.4735 23.393 18.5082 23.3021 18.5573C23.3008 18.5578 23.2995 18.5582 23.2982 18.5586L22.1523 18.9193C22.0012 18.9671 21.8636 19.0501 21.7509 19.1614C21.6382 19.2728 21.5535 19.4094 21.5039 19.5599L21.0612 20.8998C20.9001 21.3882 20.4143 21.6647 19.9128 21.5534L18.5352 21.2474C18.3805 21.2133 18.2199 21.2164 18.0666 21.2564C17.9134 21.2965 17.7718 21.3724 17.6537 21.4779L16.6003 22.4167C16.5998 22.4171 16.5994 22.4176 16.599 22.418C16.5172 22.4911 16.4259 22.5432 16.3294 22.5808C16.3058 22.586 16.2823 22.5921 16.2591 22.599C16.2587 22.5991 16.2582 22.5989 16.2578 22.599C16.1744 22.6242 16.0898 22.6461 16 22.6511C15.9061 22.6459 15.8165 22.6242 15.7292 22.5964C15.724 22.595 15.7188 22.5937 15.7135 22.5925C15.7019 22.5897 15.6902 22.5871 15.6784 22.5847C15.5784 22.5467 15.4845 22.4924 15.3997 22.4167L14.3464 21.4779C14.2282 21.3724 14.0866 21.2965 13.9334 21.2564C13.7801 21.2164 13.6195 21.2133 13.4648 21.2474L12.0872 21.5534C11.5857 21.6647 11.0999 21.3882 10.9388 20.8998L10.4961 19.5599C10.4465 19.4094 10.3618 19.2728 10.2491 19.1614C10.1364 19.0501 9.99877 18.9671 9.84766 18.9193L8.67839 18.5508H8.67709C8.59916 18.5116 8.51642 18.4827 8.43099 18.4649C7.98548 18.2876 7.73268 17.8325 7.83204 17.3542L8.1198 15.974C8.15197 15.8188 8.14678 15.6581 8.10468 15.5053C8.06257 15.3525 7.98474 15.2119 7.87761 15.0951L6.92579 14.0547L6.92448 14.0534C6.57829 13.6737 6.5748 13.1159 6.91667 12.7331L7.85547 11.681C7.96096 11.5628 8.03686 11.4213 8.07693 11.268C8.11699 11.1148 8.12009 10.9542 8.08594 10.7995L7.78126 9.4219C7.66998 8.92033 7.94518 8.43459 8.4336 8.27347L9.77474 7.83076C9.92527 7.78116 10.0618 7.69651 10.1732 7.58377C10.2846 7.47103 10.3676 7.33343 10.4154 7.18232L10.8385 5.83597C10.839 5.83597 10.8394 5.83597 10.8398 5.83597C10.9942 5.34533 11.4755 5.06205 11.9792 5.16669L13.3607 5.45445C13.5159 5.48662 13.6765 5.48144 13.8293 5.43933C13.9821 5.39723 14.1228 5.3194 14.2396 5.21227L15.28 4.25914C15.28 4.25871 15.28 4.25827 15.28 4.25784C15.475 4.07903 15.7157 3.99807 15.9714 4.00524ZM8.49219 20.5886L8.75782 20.6719L9.03907 21.5261C9.51661 22.9737 11.0318 23.8353 12.5195 23.5052L13.3971 23.3112L13.8607 23.7253L9.80079 27.7852L8.95573 25.0391C8.90775 24.8833 8.8224 24.7415 8.70711 24.6263C8.59182 24.511 8.4501 24.4256 8.29428 24.3776L5.54818 23.5326L8.49219 20.5886ZM23.5078 20.5886L26.4518 23.5326L23.7057 24.3776C23.5499 24.4256 23.4082 24.511 23.2929 24.6263C23.1776 24.7415 23.0923 24.8833 23.0443 25.0391L22.1992 27.7852L18.138 23.724L18.6029 23.3112L19.4805 23.5052C20.9682 23.8353 22.4834 22.9737 22.9609 21.5261L23.2422 20.6719L23.5078 20.5886Z" fill="#182748"/>
</svg>
